<?xml version="1.0" encoding="UTF-8" standalone="no"?>
<svg
   xmlns:dc="http://purl.org/dc/elements/1.1/"
   xmlns:cc="http://creativecommons.org/ns#"
   xmlns:rdf="http://www.w3.org/1999/02/22-rdf-syntax-ns#"
   xmlns:svg="http://www.w3.org/2000/svg"
   xmlns="http://www.w3.org/2000/svg"
   xmlns:sodipodi="http://sodipodi.sourceforge.net/DTD/sodipodi-0.dtd"
   xmlns:inkscape="http://www.inkscape.org/namespaces/inkscape"
   inkscape:version="1.0 (4035a4fb49, 2020-05-01)"
   sodipodi:docname="Mendoza.svg"
   viewBox="0 0 400 117.22201"
   height="117.22201"
   width="400"
   id="svg10"
   version="1.1">
  <metadata
     id="metadata16">
    <rdf:RDF>
      <cc:Work
         rdf:about="">
        <dc:format>image/svg+xml</dc:format>
        <dc:type
           rdf:resource="http://purl.org/dc/dcmitype/StillImage" />
        <dc:title></dc:title>
      </cc:Work>
    </rdf:RDF>
  </metadata>
  <defs
     id="defs14" />
  <sodipodi:namedview
     inkscape:current-layer="g22"
     inkscape:window-maximized="1"
     inkscape:window-y="-8"
     inkscape:window-x="-8"
     inkscape:cy="134.01801"
     inkscape:cx="315.6063"
     inkscape:zoom="1.2218897"
     showgrid="false"
     id="namedview12"
     inkscape:window-height="705"
     inkscape:window-width="1366"
     inkscape:pageshadow="2"
     inkscape:pageopacity="0"
     guidetolerance="10"
     gridtolerance="10"
     objecttolerance="10"
     borderopacity="1"
     bordercolor="#666666"
     pagecolor="#ffffff" />
  <g
     transform="translate(-283.56873,-9.1668239)"
     id="g18"
     inkscape:label="Image"
     inkscape:groupmode="layer">
    <g
       transform="translate(248.84072,-20.833176)"
       id="g22">
      <g
         transform="matrix(0.34820973,0,0,0.34820973,22.635379,19.553708)"
         id="g878">
        <path
           style="fill:#83c5e5;fill-opacity:1;stroke-width:1.33333"
           d="M 105.33333,223.69129 C 84.433333,220.76325 66.733333,217.799 66,217.10407 c -2.178528,-2.06447 -1.342053,-33.7559 1.278743,-48.4476 10.511718,-58.9268 44.790637,-98.302759 85.479177,-98.189363 17.35911,0.04837 30.93913,5.887649 45.89547,19.734578 25.96042,24.034775 42.50026,70.096405 41.10049,114.460345 l -0.42055,13.32869 -35.66488,4.85299 c -19.61568,2.66913 -38.35314,5.2561 -41.6388,5.74881 l -5.97394,0.89585 -0.36119,-26.92577 c -0.35617,-26.55225 -0.4028,-26.94117 -3.36119,-28.03456 l -3,-1.10877 v 27.95702 27.95704 l -3,-0.15917 c -1.65,-0.0875 -20.1,-2.55484 -41,-5.48287 z"
           id="path28"
           sodipodi:nodetypes="sssssscsscsscccss" />
        <path
           style="fill:#d2144d;fill-opacity:1;stroke-width:1.33333"
           d="m 171.33333,175.07529 c -1.46666,-0.33845 -9.25774,-2.71805 -17.31352,-5.28798 -9.89892,-3.15795 -16.49018,-4.52602 -20.33333,-4.22036 -3.12756,0.24874 -5.68648,0.41049 -5.68648,0.35944 0,-0.92092 8.09419,-23.61103 9.0794,-25.45192 1.73621,-3.24415 16.21616,-8.43016 24.52233,-8.78272 3.44763,-0.14633 6.49712,0.0132 6.77666,0.35443 0.27954,0.34127 2.78864,9.32049 5.57577,19.95382 2.78713,10.63333 5.35761,20.38333 5.71219,21.66667 0.66176,2.39517 -2.06239,2.85566 -8.33302,1.40862 z m -37.23809,-42.50386 c -3.33048,-3.33048 -2.47652,-6.58334 3.03565,-11.56325 5.79072,-5.23156 12.7025,-7.09499 18.37124,-4.95291 3.78659,1.43085 11.16454,7.60373 11.16454,9.34098 0,0.49354 -3.3283,1.24085 -7.39622,1.6607 -4.37004,0.45103 -9.78614,2.16396 -13.23742,4.18654 -6.77171,3.96848 -9.04443,4.2213 -11.93779,1.32794 z"
           id="path34"
           sodipodi:nodetypes="sssssssssssssssss" />
        <path
           style="fill:#efba07;fill-opacity:1;stroke-width:1.33333"
           d="M 108.24058,67.204297 C 110.47692,52.943328 119.9768,40.160516 133.14466,33.693957 139.57265,30.537253 142.315,30 152,30 c 9.47292,0 12.56952,0.579564 18.86395,3.530616 13.82937,6.483689 23.68349,19.746712 25.85761,34.802717 0.50301,3.483334 0.55544,6.333334 0.11653,6.333334 -0.43892,0 -3.7841,-1.837348 -7.43374,-4.082996 -10.91298,-6.714818 -20.7599,-9.627606 -34.74616,-10.27816 -11.05082,-0.514015 -13.98832,-0.148751 -22.92223,2.850261 -5.63589,1.891907 -13.19843,5.255819 -16.80565,7.475361 -3.60721,2.219544 -6.85138,4.035534 -7.20926,4.035534 -0.35788,0 -0.12409,-3.358067 0.51953,-7.46237 z"
           id="path32" />
        <path
           style="fill:#8bb85f;fill-opacity:1;stroke-width:1.33333"
           d="M 133.94916,364.70203 C 117.54272,361.13041 101.61153,352.12556 86.843748,338.07644 23.670411,277.9774 16.751479,151.99943 72.547497,77.774324 81.955271,65.259219 102.66667,46.475629 102.66667,50.458631 c 0,0.670517 -1.4588,4.441626 -3.241785,8.380245 -1.78298,3.938619 -3.654389,9.561124 -4.158688,12.494457 -0.548242,3.188939 -2.896588,7.745778 -5.840582,11.333334 -8.416155,10.255942 -13.434212,18.339353 -20.1246,32.418003 -18.385787,38.68938 -23.043788,87.38005 -12.727072,133.03768 11.497753,50.8844 40.576477,88.43392 76.759387,99.11981 8.76664,2.58904 26.24218,2.89841 35.39955,0.62667 15.59377,-3.86848 28.73433,-12.02842 41.94813,-26.04867 25.69728,-27.26561 40.1895,-65.90389 42.19086,-112.48683 2.06925,-48.163 -11.32866,-94.05426 -36.47088,-124.922123 -4.39915,-5.40097 -6.55483,-9.5813 -7.88819,-15.2969 -1.00912,-4.325708 -3.07917,-10.304179 -4.60013,-13.28549 -1.52095,-2.98131 -2.51932,-5.666613 -2.21859,-5.967338 0.97553,-0.975531 11.30952,7.19424 19.0958,15.096621 20.74323,21.052541 36.87631,53.36674 44.61364,89.36017 3.62217,16.85 5.00035,55.7614 2.64216,74.5984 -11.1268,88.87973 -71.01157,149.5187 -134.09652,135.78536 z"
           id="path26" />
        <path
           style="fill:#007788;fill-opacity:1;stroke-width:1.33333"
           d="m 373.36565,357.86255 c -26.59793,-7.14752 -42.67878,-34.8946 -37.60194,-64.88118 3.22358,-19.04029 12.93941,-32.33056 29.30201,-40.08217 8.55375,-4.05225 9.64416,-4.23253 25.60095,-4.23253 15.51194,0 17.23668,0.26336 24.89392,3.80114 4.52498,2.09063 9.45405,5.10703 10.95349,6.7031 l 2.72624,2.90196 -3.15247,3.95357 -3.15246,3.95357 -9.13436,-4.57334 c -7.74566,-3.87807 -10.85738,-4.65615 -20.4677,-5.11791 -9.22173,-0.44311 -12.72966,-0.018 -18.82774,2.28136 -15.136,5.70733 -23.91052,19.16679 -24.91542,38.21836 -1.07566,20.39359 6.16331,35.26389 20.85966,42.84988 7.68002,3.96428 9.52789,4.36164 20.28332,4.36164 8.70561,0 13.78508,-0.73019 19.21684,-2.76247 l 7.38334,-2.76246 v -12.51246 -12.51245 l -9.66666,-0.39175 -9.66667,-0.39174 -0.41383,-5 -0.41381,-5 h 16.78101 16.78102 l -0.3672,21 -0.36719,21 -6.95401,3.72668 c -13.27288,7.113 -34.7605,9.47852 -49.68034,5.4692 z m 121.96768,0.28945 c -15.78886,-3.83957 -27.27913,-13.37159 -34.3608,-28.50475 -3.41312,-7.29369 -4.1634,-10.77348 -4.69266,-21.76457 -0.38018,-7.89524 10e-4,-15.58887 0.96144,-19.40292 4.12992,-16.4014 14.60321,-29.42883 29.1346,-36.23968 6.88652,-3.22772 9.11018,-3.57341 22.98546,-3.57341 14.65951,0 15.76654,0.19946 24.22892,4.36548 11.01447,5.42241 21.01056,15.95212 25.28895,26.63897 2.62157,6.54836 3.07137,10.08504 3.09413,24.32888 0.0255,15.94352 -0.15492,17.04984 -4.15765,25.49784 -5.37691,11.34829 -11.83705,18.42075 -21.45793,23.49175 -12.86003,6.77832 -27.04136,8.56285 -41.02446,5.16241 z m 31.54827,-14.21119 c 11.94772,-5.99105 18.47849,-15.55278 21.16684,-30.99044 3.66917,-21.06998 -4.57649,-40.7957 -20.64456,-49.38698 -7.8414,-4.19266 -28.31029,-4.18676 -36.16149,0.0107 -6.42304,3.43368 -14.77039,12.3042 -17.31944,18.40498 -7.31802,17.51444 -4.02052,42.38049 7.22374,54.4736 10.27476,11.05041 31.6513,14.55052 45.73491,7.48844 z m 588.4517,14.27379 C 1090.6071,351.77428 1076,331.33321 1076,303.172 c 0,-22.94712 11.4255,-42.04483 30.5067,-50.99177 6.7345,-3.15778 9.046,-3.51356 22.8266,-3.51356 14.3852,0 15.8693,0.25514 24,4.12606 16.3169,7.76822 26.3871,22.00286 29.3875,41.5406 4.1363,26.93375 -9.4231,53.33426 -31.6674,61.65688 -9.4993,3.55416 -26.5405,4.61536 -35.7201,2.22439 z m 32.161,-14.29255 c 7.637,-3.69698 15.7758,-13.11186 18.7541,-21.69469 2.8183,-8.12135 3.1778,-26.63212 0.6818,-35.10381 -4.6465,-15.77098 -17.3776,-25.7488 -34.2344,-26.8306 -24.7761,-1.59004 -40.2896,13.09749 -41.7599,39.53649 -1.3915,25.02313 8.0046,40.89076 27.4684,46.38731 8.2621,2.33321 21.7236,1.27134 29.09,-2.2947 z M 592,304.04133 v -54.86646 l 25.66667,0.41256 c 25.00834,0.40198 25.86153,0.50826 33.26433,4.14354 8.97073,4.40524 12.82075,9.77878 13.97224,19.50128 1.41439,11.94228 -3.51561,20.74414 -14.80325,26.42927 l -5.23335,2.63583 6.81665,2.26413 c 19.32915,6.42011 23.54976,29.54841 8.09714,44.37095 -8.358,8.01718 -12.32607,8.92444 -41.4471,9.47632 L 592,358.90781 Z m 53.05896,40.8164 c 6.34565,-3.35252 9.59675,-9.44358 9.60272,-17.99106 0.004,-6.29418 -0.51215,-7.65047 -4.39091,-11.52923 -5.77738,-5.77739 -11.94153,-7.32101 -29.27077,-7.33 L 606.66667,308 v 20.15765 20.15767 l 17,-0.56852 c 12.73706,-0.42596 18.10141,-1.15043 21.39229,-2.88907 z m -3.865,-49.53058 c 7.08965,-4.16627 9.7804,-8.71038 9.7804,-16.5171 0,-7.51534 -2.30381,-12.1016 -7.93253,-15.79148 -2.81114,-1.84282 -7.13624,-2.45373 -19.98144,-2.82234 l -16.39372,-0.47043 v 19.61433 19.61434 l 15,-0.48343 c 11.98582,-0.38628 15.90973,-1.01803 19.52729,-3.14389 z M 702.66667,304 V 249.33333 H 709.33333 716 V 304 358.66667 h -6.66667 -6.66666 z m 52,0 V 249.33333 H 788 821.33333 V 254.66667 260 H 794.66667 768 v 18.66667 18.66666 h 21.33333 21.33334 v 6.0656 6.0656 l -17,-0.13542 c -9.35,-0.0745 -18.96648,-0.104 -21.36995,-0.0656 l -4.36993,0.0699 0.36993,19 0.36995,19 26.33333,0.36152 26.33333,0.36152 v 5.30515 5.30515 H 788 754.66667 v -54.66667 z m 98.66666,0 v -54.66667 h 21.09134 c 24.09218,0 32.17656,1.68266 39.66224,8.25516 6.92677,6.08179 9.06956,11.06446 9.06461,21.07818 -0.007,14.02974 -8.29633,25.80876 -20.81819,29.58208 -2.75,0.82868 -5,1.82888 -5,2.22268 0,0.3938 1.39538,2.24882 3.10082,4.12228 4.06693,4.46757 31.56585,42.22636 31.56585,43.34308 0,0.47462 -3.43984,0.68301 -7.64411,0.46308 L 916.7118,358 901.74408,337.33333 c -8.23225,-11.36666 -16.25888,-21.71666 -17.83695,-23 C 881.96592,312.75469 878.71381,312 873.85229,312 h -7.18562 v 23.33333 23.33334 H 860 853.33333 Z m 44.67526,-4.81673 c 7.90286,-4.07936 11.32474,-9.92132 11.32474,-19.33406 0,-6.68893 -0.54169,-8.37337 -3.93597,-12.23925 C 900.32959,261.83808 893.91629,260 878.84531,260 h -12.17864 v 21.48841 21.4884 l 13.00858,-0.52249 c 9.76835,-0.39235 14.33488,-1.20711 18.33334,-3.27105 z M 958.66667,304 v -54.66667 h 5.07946 5.07947 l 32.5872,42.66278 32.5872,42.66276 0.3518,-42.66276 0.3518,-42.66278 h 5.9815 5.9816 V 304 358.66667 h -5.1376 -5.1375 l -32.5291,-42.60259 -32.52917,-42.60259 -0.3518,42.60259 -0.35181,42.60259 h -5.98152 -5.98153 z m -821.18356,27.22593 c -26.40633,-7.10154 -49.430533,-32.00217 -62.022299,-67.07697 -1.945075,-5.41808 -3.288427,-10.09912 -2.985226,-10.40232 0.518495,-0.51849 71.735625,-12.41331 74.321495,-12.41331 0.6616,0 1.20292,3.9 1.20292,8.66667 0,8.92608 0.69392,9.85164 5.89095,7.85735 1.59302,-0.61131 2.10905,-2.73178 2.10905,-8.66667 0,-4.67416 0.57587,-7.85735 1.42148,-7.85735 2.77771,0 73.82449,12.13486 74.39665,12.70702 1.1844,1.18441 -7.91973,23.99761 -13.44329,33.68625 -7.02816,12.3278 -21.73428,28.36253 -32.27428,35.19004 l -7.89943,5.11704 -1.70716,-4.96579 c -3.0801,-8.95944 -12.05456,-12.95858 -20.84138,-9.28721 -6.03067,2.51977 -9.59199,7.88395 -9.59199,14.44776 0,2.80769 -0.31363,5.0654 -0.69696,5.01715 -0.38333,-0.0483 -3.92957,-0.95711 -7.88053,-2.01966 z m 3.20648,-9.55926 c 8.93664,-10.30795 10.23564,-12.45495 9.44401,-15.60907 -2.94705,-11.74199 -18.81961,-15.71965 -26.04972,-6.52807 -3.742,4.75719 -3.69393,13.57819 0.10027,18.40175 4.79009,6.08961 12.87759,7.91991 16.50543,3.73539 z m 37.16776,-11.77572 c 2.62772,-6.84774 -0.91627,-15.1745 -7.86111,-18.47004 -5.39988,-2.5624 -10.26073,-1.97691 -15.2666,1.83889 -2.92105,2.22661 -3.09908,2.86881 -1.66667,6.01261 0.88203,1.93586 1.6037,4.65715 1.6037,6.04731 0,2.14277 0.9905,2.51992 6.50604,2.47719 3.57832,-0.0277 8.22832,0.88261 10.33333,2.02297 4.85723,2.63129 5.36667,2.637 6.35131,0.0711 z m 18.448,-4.50103 c 4.09922,-4.54685 5.67676,-9.29013 4.56412,-13.72325 -0.70734,-2.81827 -1.44303,-3 -12.14455,-3 -6.26537,0 -11.39159,0.20737 -11.39159,0.46084 0,0.25346 1.30818,2.298 2.90707,4.54342 1.99243,2.79812 2.93631,6.15155 3,10.65852 l 0.0929,6.57592 4.6667,-0.73972 c 2.86091,-0.45348 6.07465,-2.30144 8.30535,-4.77573 z m -77.86808,-5.546 2.71595,-5.48941 -2.90994,-4.57138 c -2.77327,-4.35665 -3.19175,-4.53481 -8.90995,-3.79341 -11.488955,1.48963 -13.406819,2.11573 -12.336931,4.02752 0.915716,1.63629 17.248051,15.31609 18.285911,15.31609 0.24146,0 1.66119,-2.47024 3.15496,-5.48941 z m 37.72405,-13.45325 c 2.58271,-0.8609 0.18515,-7.43551 -3.62095,-9.92936 -7.81038,-5.11756 -17.8737,-0.3669 -17.8737,8.43777 0,3.70377 0.49421,4.43749 3,4.45391 1.65,0.0107 4.5,0.80361 6.33333,1.76178 2.94847,1.54099 3.751,1.3995 6.95073,-1.22545 1.98958,-1.63217 4.33435,-3.20657 5.21059,-3.49865 z m -26.823,-0.724 c 0.007,-6.80071 4.08949,-13.04608 9.90261,-15.14814 6.00366,-2.17094 5.99374,-3.47206 -0.0457,-5.9955 -6.17002,-2.578 -11.1405,-1.4511 -16.00782,3.6293 -5.13911,5.36407 -5.41947,13.96652 -0.62164,19.07359 4.62568,4.9238 6.76659,4.43091 6.77256,-1.55925 z m 53.32835,-3.12522 c 1.1,-0.0741 4.1,0.27215 6.66666,0.76962 2.59784,0.5035 6.38351,0.24552 8.53936,-0.58196 l 3.8727,-1.48643 -3.83575,-4.00367 c -2.10965,-2.202 -5.08763,-4.31785 -6.61769,-4.70188 -1.89183,-0.47481 -3.27996,-2.48557 -4.33843,-6.28434 -0.85605,-3.07236 -2.1708,-6.48612 -2.92167,-7.58612 -1.21349,-1.77778 -1.51382,-1.77778 -2.70298,0 -0.7358,1.1 -2.03446,4.4 -2.88591,7.33333 -0.85145,2.93333 -3.54945,7.45863 -5.99553,10.05621 -6.32448,6.71619 -5.89767,8.3946 1.8859,7.41622 3.48334,-0.43786 7.23334,-0.85679 8.33334,-0.93098 z m -15.54139,-8.14046 4.75381,-6.26567 -4.04184,-3.401 c -4.91364,-4.13455 -10.85128,-4.39865 -16.83725,-0.74893 -4.85181,2.9582 -5.64228,5.34794 -1.76897,5.34794 3.21558,0 10.3428,5.89008 11.48612,9.49238 0.47281,1.48972 1.03846,2.51337 1.25698,2.27477 0.21854,-0.2386 2.53655,-3.25337 5.15115,-6.69949 z m 707.87561,-77.79451 c -27.87638,-7.50647 -44.36801,-29.489 -44.52041,-59.34353 -0.0679,-13.30674 1.56567,-20.37333 7.14176,-30.89389 18.16501,-34.272403 69.88123,-41.832472 98.83604,-14.44822 13.47917,12.74804 18.88208,27.45768 17.93196,48.82059 -0.54241,12.19617 -1.10161,14.6428 -5.42973,23.7566 -10.5368,22.1875 -30.77687,34.30897 -56.90731,34.08089 -5.52925,-0.0483 -13.2028,-0.93587 -17.05231,-1.97244 z m 33.74683,-23.60912 c 11.59735,-6.0764 17.91895,-18.59052 17.91895,-35.47204 0,-14.48874 -2.83936,-23.10153 -9.96491,-30.22707 -13.07169,-13.07169 -35.61349,-13.054741 -48.21632,0.0363 -7.23385,7.51405 -10.31955,16.74239 -10.26167,30.68941 0.0699,16.84021 6.21722,28.58852 18.11866,34.62693 6.2291,3.16045 8.15325,3.48908 17.65757,3.01587 6.22152,-0.30978 12.36737,-1.42218 14.74772,-2.66935 z M 336,136.66667 V 76 h 12.08765 c 6.64822,0 13.25991,0.627365 14.69264,1.394147 1.52663,0.817022 10.60662,17.39003 21.9344,40.035183 l 19.3294,38.64104 19.25636,-38.62554 C 434.76559,94.447385 443.62252,78.248933 445.19075,77.409641 446.63941,76.634339 453.26413,76 459.91235,76 H 472 v 60.66667 60.66666 h -11.98045 -11.98044 l -0.3529,-40.13414 -0.35288,-40.13416 -16.42916,32.12566 c -9.03604,17.66912 -17.71953,33.02948 -19.29666,34.13415 -4.38514,3.07147 -12.5006,2.56995 -16.06322,-0.99267 -1.65064,-1.65064 -10.17337,-17.0035 -18.9394,-34.11746 l -15.93822,-31.11631 -0.35288,40.11747 -0.3529,40.11746 H 347.98045 336 Z m 156.09469,0 L 492.12296,76 h 38.60517 38.60518 V 86.666667 97.333333 H 544.66664 519.99997 V 112 126.66667 h 19.33334 19.33333 v 10 10 h -19.377 -19.377 l 0.377,15 0.377,15 24.33333,0.36341 24.33334,0.36341 v 9.96992 9.96992 h -38.63346 -38.63346 z m 94.57198,0 V 76 l 7.66666,0.0182 c 4.21667,0.01 8.96123,0.365495 10.54348,0.78996 1.71444,0.459928 14.91335,16.074403 32.66667,38.64509 l 29.78985,37.87334 0.35347,-38.6633 L 668.04028,76 H 680.02013 692 v 60.66667 60.66666 h -9.73844 c -11.89108,0 -8.54073,3.20626 -44.39272,-42.48349 l -26.53551,-33.81683 -0.35378,38.15016 -0.35378,38.15016 h -11.97956 -11.97954 z m 126.66666,-0.15915 V 75.681716 L 743,76.305248 c 26.09448,0.548452 30.71023,0.978672 38.33333,3.572925 16.92618,5.760226 29.985,17.790254 36.3162,33.455157 2.50663,6.20199 2.96799,9.90457 2.99051,24 0.0256,16.01266 -0.14088,17.02028 -4.24197,25.67804 -5.04392,10.64812 -15.14732,21.82506 -24.16582,26.73354 -11.2794,6.13901 -20.8103,7.54705 -51.23225,7.56872 l -27.66667,0.0197 z m 62.36782,36.0376 c 12.214,-5.97576 17.61164,-16.99299 17.62474,-35.97427 0.009,-12.56712 -2.38054,-20.67429 -8.15873,-27.68422 C 778.22011,100.45865 772.18619,98.197628 755,97.582452 l -15,-0.536921 v 39.255019 c 0,21.59025 0.45,39.72598 1,40.30161 0.55,0.57564 6.95579,0.69429 14.23507,0.26368 10.5624,-0.62483 14.69529,-1.49735 20.46608,-4.32072 z m 181.89397,17.64955 c 0.56377,-6.79839 2.00479,-9.1659 30.23043,-49.66667 L 1017.464,98 990.06533,97.639616 962.66667,97.279231 V 86.639616 76 H 1007.3333 1052 l -0.017,7.666667 -0.017,7.666666 -29.308,41.999997 c -16.1194,23.1 -29.31175,42.45 -29.31638,43 -0.004,0.55 12.89158,1 28.65828,1 h 28.6666 v 10 10 h -46.8317 -46.83181 l 0.592,-7.13866 z m 99.73248,6.13866 c 0,-0.55 10.34,-27.85 22.9848,-60.66666 L 1103.3031,76 l 14.0151,0.01147 14.0151,0.01147 22.314,58.32182 c 12.2727,32.077 22.6869,59.37182 23.1426,60.65515 0.7519,2.11701 -0.3498,2.33333 -11.8838,2.33333 -15.1665,0 -15.848,-0.53848 -20.8442,-16.4694 l -3.1981,-10.19716 h -23.6557 -23.6558 l -3.6157,11 c -5.1246,15.5903 -5.2228,15.66666 -20.1433,15.66666 -6.853,0 -12.4626,-0.45 -12.4657,-1 z m 76.0057,-45.9989 c 0,-2.16631 -14.7413,-46.73288 -15.8331,-47.86716 -0.4584,-0.47633 -4.5227,10.47367 -9.0317,24.33334 L 1100.2704,152 h 16.5315 c 12.3305,0 16.5314,-0.42325 16.5314,-1.66557 z"
           id="path24" />
      </g>
    </g>
  </g>
</svg>
